<svg xmlns="http://www.w3.org/2000/svg" viewBox="0 0 183.27 139.2"><defs><style>.cls-1{fill:#eeb61e;}</style></defs><title>Ativo 1</title><g id="Camada_2" data-name="Camada 2"><g id="Layer_1" data-name="Layer 1"><path class="cls-1" d="M178.17,48.81c4.07,7.68,6.27,16.17,5,24.57-1.43,9.44-8.08,17.17-15.14,23.16a41.75,41.75,0,0,1-17.19,11.75q-4.83,2.71-9.82,5c.95,6.88-.52,13.51,22,23.71,1,.45-3.47,1.56-6.7,2.1l-.33-2c.4-.06.73-.14,1-.2-21.68-9.34-19.39-15-21.1-20.09-.28-.83-2.57-6.87,4-10.22,8.11-4.12,16.17-6.35,22.56-13.05a44.79,44.79,0,0,0,11.29-22.79,36.76,36.76,0,0,0-2.38-21.27A66.5,66.5,0,0,0,159.89,35c-10.81-10.37-25-17.38-39.17-22.33a152.35,152.35,0,0,0-17.84-4c-7.08-1.14-14.56-1.89-21.7-.89A83.39,83.39,0,0,0,59.82,14.3,128,128,0,0,0,21.44,40l-2.3-1.53,1-1A134.91,134.91,0,0,1,31.23,23.69c10.1-11,22.36-20.22,37.43-22.54,16.49-2.53,33.81.6,49.59,5.42h0c3.53.93,7,2,10.31,3.05C144.44,14.81,160.67,23,171.2,36.32A44.71,44.71,0,0,1,178.17,48.81ZM73.77,4.68a69.08,69.08,0,0,0-10.36,1.4C52.89,8.34,43.78,14.85,36,22.54c.64-.44,1.27-.88,1.9-1.29C48.72,14.08,61,7.78,73.77,4.68Z" transform="translate(-0.25 -0.25)"/><path class="cls-1" d="M171.36,49.5a36.76,36.76,0,0,1,2.38,21.27,44.79,44.79,0,0,1-11.29,22.79c-6.39,6.7-14.45,8.93-22.56,13.05-6.59,3.35-4.3,9.39-4,10.22,1.71,5.1-.58,10.75,21.1,20.09-.24.06-.57.14-1,.2a8.65,8.65,0,0,1-2.29.08c-31.31-2.91-40.42-6.22-54-11.54-2.82-1.11-5.84-2.3-9.28-3.59a30.81,30.81,0,0,0,4.06-2.61c1.18-.91.56-3.27-1.12-2.66-3.18,1.16-6.37,2.36-9.62,3.35a1.21,1.21,0,0,0-.71.2,52.44,52.44,0,0,1-5.5,1.34c-1.3.24-2.61.43-3.92.6-4.2-.66-8.42-1.2-12.54-2.19A150.53,150.53,0,0,1,38,112.8c-9.39-3.9-20.3-9.49-27.48-17.65a31.93,31.93,0,0,1-4-15.38c.05-14.1,6.81-28.1,15-39.77A128,128,0,0,1,59.82,14.3,83.39,83.39,0,0,1,81.18,7.78c7.14-1,14.62-.25,21.7.89a152.35,152.35,0,0,1,17.84,4c14.21,4.95,28.36,12,39.17,22.33A66.5,66.5,0,0,1,171.36,49.5Z" transform="translate(-0.25 -0.25)"/><path class="cls-1" d="M156.33,139.13h0a16.3,16.3,0,0,1-2.81.31c-3.37-.19-24.36-.08-45-5.24L109,132c3,.84.06-.78-10-4.23l.71-2.14c13.58,5.32,22.69,8.63,54,11.54a8.65,8.65,0,0,0,2.29-.08Z" transform="translate(-0.25 -0.25)"/><path class="cls-1" d="M109,132l-.55,2.18a103.24,103.24,0,0,1-15.58-5.11c-2-.83-3.88-1.68-4.59-3.86l0-.09.1.19a.92.92,0,0,1,.76-1.39l-.41-.13c-.32.13-.64.25-1,.36h0l0,0,0,0c-.46.17-.93.32-1.4.47a.55.55,0,0,1-.47.71c-.86.08-1.72.13-2.59.15-9.22,2.24-19.58,1.84-28.2.63-14.84-2.08-29.65-8.63-39.77-19.87a42.69,42.69,0,0,1-6.56-9.63l-.63-.76,2.36-.74C17.67,103.31,28.58,108.9,38,112.8a150.53,150.53,0,0,0,23.11,7.3c4.12,1,8.34,1.53,12.54,2.19,1.31-.17,2.62-.36,3.92-.6a52.44,52.44,0,0,0,5.5-1.34,1.21,1.21,0,0,1,.71-.2c3.25-1,6.44-2.19,9.62-3.35,1.68-.61,2.3,1.75,1.12,2.66a30.81,30.81,0,0,1-4.06,2.61c3.44,1.29,6.46,2.48,9.28,3.59L99,127.8q-2.67-.92-6-2c3.34,1.49,6.76,2.83,10.17,4.15C105.92,131,107.91,131.71,109,132ZM31.5,115a70,70,0,0,0,28.2,7.72,157.61,157.61,0,0,1-19-5.21,108.06,108.06,0,0,1-16.47-7.05A57.39,57.39,0,0,0,31.5,115Z" transform="translate(-0.25 -0.25)"/><path class="cls-1" d="M87.77,124.18a.21.21,0,0,1,0,.08.23.23,0,0,0-.07-.07Z" transform="translate(-0.25 -0.25)"/><path class="cls-1" d="M19.14,38.47,21.44,40C13.26,51.67,6.5,65.67,6.45,79.77a31.93,31.93,0,0,0,4,15.38l-2.36.74c-.63-.77-1.24-1.55-1.82-2.37C-7.17,74.47,4,54,19.14,38.47ZM3.91,67.12c.29-1.19.63-2.38,1-3.56A34.25,34.25,0,0,0,2.64,74.68,49.36,49.36,0,0,1,3.91,67.12Z" transform="translate(-0.25 -0.25)"/></g></g></svg>