<svg xmlns="http://www.w3.org/2000/svg" viewBox="0 0 104.67 79.5"><defs><style>.cls-1{fill:#256733;}</style></defs><title>Ativo 2</title><g id="Camada_2" data-name="Camada 2"><g id="Layer_1" data-name="Layer 1"><path class="cls-1" d="M94.14,22.08c8.66,8.86,15,20.56,7.32,31.44-.43.61-.89,1.19-1.37,1.76l-1-.83a18.28,18.28,0,0,0,2.3-8.78c0-8-3.89-16-8.56-22.71Zm8.69,16.37a27.19,27.19,0,0,1,.72,4.31,19.3,19.3,0,0,0-1.29-6.35Q102.57,37.41,102.83,38.45Z" transform="translate(-0.25 -0.25)"/><path class="cls-1" d="M101.38,45.67a18.28,18.28,0,0,1-2.3,8.78C95,59.11,88.74,62.3,83.38,64.53a86.79,86.79,0,0,1-13.2,4.17c-2.35.56-4.76.88-7.16,1.25-.75-.1-1.5-.2-2.24-.34a31.27,31.27,0,0,1-3.14-.77.67.67,0,0,0-.4-.11c-1.86-.57-3.68-1.25-5.5-1.91-1-.36-1.32,1-.64,1.52a17.64,17.64,0,0,0,2.32,1.48C42,74.12,38.87,76.46,17.28,78.47a4.6,4.6,0,0,1-1.14,0,6.48,6.48,0,0,1-.72-.14c12.38-5.33,11.07-8.55,12-11.47A4.44,4.44,0,0,0,25.18,61c-4.64-2.36-9.24-3.63-12.89-7.46a25.59,25.59,0,0,1-6.45-13A20.92,20.92,0,0,1,7.2,28.38a37.75,37.75,0,0,1,6.55-8.3C19.92,14.16,28,10.15,36.12,7.32A89.91,89.91,0,0,1,46.31,5.06a41.9,41.9,0,0,1,12.39-.5A47.44,47.44,0,0,1,70.9,8.28,73,73,0,0,1,92.82,23C97.49,29.62,101.35,37.62,101.38,45.67Z" transform="translate(-0.25 -0.25)"/><path class="cls-1" d="M100.09,55.28l0,0a24.76,24.76,0,0,1-3.74,5.5C90.54,67.23,82.08,71,73.6,72.15a44.42,44.42,0,0,1-16.1-.35c-.5,0-1,0-1.48-.09a.31.31,0,0,1-.27-.4L54.94,71l0,0h0l-.55-.21-.23.08a.52.52,0,0,1,.43.79.35.35,0,0,0,.06-.1.42.42,0,0,0,0,0c-.41,1.24-1.51,1.72-2.63,2.2-13.86,5.91-32.19,5.77-34.61,5.91A8.9,8.9,0,0,1,16,79.6l.15-1.16a4.6,4.6,0,0,0,1.14,0c21.59-2,24.69-4.35,36.14-8.65a17.64,17.64,0,0,1-2.32-1.48c-.68-.53-.32-1.88.64-1.52,1.82.66,3.64,1.34,5.5,1.91a.67.67,0,0,1,.4.11,31.27,31.27,0,0,0,3.14.77c.74.14,1.49.24,2.24.34,2.4-.37,4.81-.69,7.16-1.25a86.79,86.79,0,0,0,13.2-4.17C88.74,62.3,95,59.11,99.08,54.45Zm-13,10.51a32.89,32.89,0,0,0,4.14-2.6,61.92,61.92,0,0,1-9.4,4A90.6,90.6,0,0,1,71,70.2,40.07,40.07,0,0,0,87.07,65.79ZM46.16,74.33c2-.76,3.9-1.52,5.81-2.38C40.68,75.58,39.7,76.83,46.16,74.33Z" transform="translate(-0.25 -0.25)"/><path class="cls-1" d="M94.14,22.08,92.82,23A73,73,0,0,0,70.9,8.28,47.44,47.44,0,0,0,58.7,4.56a41.9,41.9,0,0,0-12.39.5A89.91,89.91,0,0,0,36.12,7.32C28,10.15,19.92,14.16,13.75,20.08a37.75,37.75,0,0,0-6.55,8.3A20.92,20.92,0,0,0,5.84,40.53a25.59,25.59,0,0,0,6.45,13c3.65,3.83,8.25,5.1,12.89,7.46a4.44,4.44,0,0,1,2.29,5.83c-1,2.92.33,6.14-12,11.47a6.48,6.48,0,0,0,.72.14L16,79.6c-1.85-.29-4.61-1-4-1.23,12.87-5.83,12-9.61,12.57-13.54-1.9-.89-3.77-1.84-5.61-2.87A23.94,23.94,0,0,1,9.1,55.24C5.07,51.82,1.27,47.41.46,42A22.86,22.86,0,0,1,3.31,28a25.43,25.43,0,0,1,4-7.13c6-7.6,15.28-12.28,24.33-15.24C33.52,5,35.5,4.4,37.52,3.87h0c9-2.75,18.91-4.54,28.32-3.09,8.61,1.32,15.61,6.56,21.38,12.87a77.47,77.47,0,0,1,6.33,7.86ZM83.39,12.24l1.09.74c-4.42-4.39-9.62-8.11-15.63-9.4a40.36,40.36,0,0,0-5.91-.8A66,66,0,0,1,83.39,12.24Z" transform="translate(-0.25 -0.25)"/><path class="cls-1" d="M54.93,71h0l0,0Z" transform="translate(-0.25 -0.25)"/></g></g></svg>